<svg viewBox="0 0 384 384" xmlns="http://www.w3.org/2000/svg"><path d="m214.3 368h-44.6l-16.3-47.7-26.2-8.3-48.5 18-24.7-24.7 18.1-48.5-8.3-26.2-47.8-16.3v-44.6l47.7-16.3 8.3-26.2-18-48.5 24.7-24.7 48.5 18.1 26.2-8.3 16.3-47.8h44.6l16.3 47.7 26.2 8.3 48.5-18 24.7 24.7-18.1 48.5 8.3 26.2 47.8 16.3v44.6l-47.7 16.3-8.3 26.2 18 48.5-24.7 24.7-48.5-18.1-26.2 8.3zm-33.1-16h21.7l15.2-44.5 39.1-12.5 44 16.5 10.2-10.2-16.5-44 12.5-39.1 44.6-15.4v-21.6l-44.5-15.2-12.5-39.2 16.5-44-10.3-10.3-44 16.5-39.1-12.5-15.3-44.5h-21.6l-15.3 44.5-39.1 12.5-44-16.5-10.3 10.3 16.5 44-12.5 39.1-44.5 15.3v21.7l44.5 15.2 12.5 39.1-16.5 44 10.2 10.2 44-16.5 39.1 12.5z"/><path d="m192 192a40 40 0 1 1 40-40 40 40 0 0 1 -40 40zm0-64a24 24 0 1 0 24 24 24 24 0 0 0 -24-24z"/><path d="m256 272h-16v-28a20 20 0 0 0 -20-20h-56a20 20 0 0 0 -20 20v28h-16v-28a36 36 0 0 1 36-36h56a36 36 0 0 1 36 36z"/></svg>